<svg id="Layer_1" data-name="Layer 1" xmlns="http://www.w3.org/2000/svg" viewBox="0 0 666.67 333.33"><defs><style>.cls-1{fill:#fff;fill-rule:evenodd;}</style></defs><path class="cls-1" d="M700,333.33a33.34,33.34,0,0,1,33.33,33.34v66.66a33.33,33.33,0,1,1-66.66,0V366.67A33.34,33.34,0,0,1,700,333.33Z" transform="translate(-66.67 -233.33)"/><path class="cls-1" d="M470.19,448.24a33.33,33.33,0,1,0,59.63-29.81l-33.33-66.67a33.33,33.33,0,0,0-59.63,29.81Zm-88.61,14.91a33.33,33.33,0,0,1-44.72-14.91l-33.33-66.67a33.33,33.33,0,1,1,59.62-29.81l33.34,66.66A33.34,33.34,0,0,1,381.58,463.15Zm-133.33,0a33.33,33.33,0,0,1-44.72-14.91l-33.34-66.67a33.33,33.33,0,1,1,59.63-29.81l33.33,66.67A33.33,33.33,0,0,1,248.25,463.15ZM231.14,233.33H468.86c29.55,0,55,0,75.4,2.74,21.85,2.94,42.8,9.56,59.78,26.55s23.62,37.94,26.56,59.79c2.74,20.39,2.74,45.85,2.73,75.4v4.38c0,29.55,0,55-2.73,75.4-2.94,21.85-9.57,42.8-26.56,59.79S566.11,561,544.26,563.93c-20.39,2.74-45.85,2.74-75.4,2.74H231.14c-29.55,0-55,0-75.4-2.74-21.85-2.94-42.8-9.56-59.78-26.55S72.34,499.44,69.4,477.59c-2.74-20.39-2.74-45.85-2.73-75.4v-4.38c0-29.55,0-55,2.73-75.4C72.34,300.56,79,279.61,96,262.62s37.93-23.61,59.78-26.55C176.13,233.33,201.59,233.33,231.14,233.33Z" transform="translate(-66.67 -233.33)"/></svg>