<svg id="Layer_1" data-name="Layer 1" xmlns="http://www.w3.org/2000/svg" viewBox="0 0 610.48 608.09"><defs><style>.cls-1{fill:#fff;stroke:#fff;stroke-miterlimit:6.25;stroke-width:1.56px;}</style></defs><g id="SVGRepo_iconCarrier" data-name="SVGRepo iconCarrier"><path class="cls-1" d="M702.86,373c1.29-54.6-.52-110.83-22.28-157.38l0,0c-33.67-71.83-106.17-115.83-184.4-118.7a32.1,32.1,0,0,0-3.39-.19H332c-72.36,0-140,15.62-188.74,74.06-41.28,49.55-49,106.7-49,168.31V373Z" transform="translate(-93.48 -95.91)"/><rect class="cls-1" x="246.52" y="332.39" width="115" height="50.84"/><path class="cls-1" d="M510.18,428.3v78.51a27.62,27.62,0,0,1-27.56,27.57H312.41a28,28,0,0,1-27.56-27.65V428.3h.56c0-.1,0-.2,0-.3H94.26V675.66a28,28,0,0,0,27.57,27.56H673.16a28,28,0,0,0,27.56-27.56V454.58c0-8.56.17-17.34.41-26.28Z" transform="translate(-93.48 -95.91)"/></g></svg>