<svg id="Layer_1" data-name="Layer 1" xmlns="http://www.w3.org/2000/svg" viewBox="0 0 747.93 747.93"><defs><style>.cls-1{fill:#fff;stroke:#fff;stroke-miterlimit:133.33;stroke-width:20px;}</style></defs><g id="SVGRepo_iconCarrier" data-name="SVGRepo iconCarrier"><path class="cls-1" d="M392.22,585.87a42.06,42.06,0,1,1-58.44,60.51c-.35-.34-.69-.69-1-1l-59.48-59.47-118.95,119a42.07,42.07,0,1,1-59.51,59.47L35.33,704.86a42.07,42.07,0,0,1,59.48-59.52l119-119-59.48-59.47a42.07,42.07,0,0,1,59.48-59.48L392.22,585.87Zm3.71-55.8L269.56,403.73,645,65.34,749.16,50.51,734.33,154.67Z" transform="translate(-13 -38.73)"/></g></svg>